<svg width="60" height="60" viewBox="0 0 60 60" fill="none" xmlns="http://www.w3.org/2000/svg">
<g clip-path="url(#clip0_2_166)">
<path d="M47.6367 46.8281C45.3984 41.3555 40.0195 37.5 33.75 37.5H26.25C19.9805 37.5 14.6016 41.3555 12.3633 46.8281C8.19141 42.4453 5.625 36.5273 5.625 30C5.625 16.5352 16.5352 5.625 30 5.625C43.4648 5.625 54.375 16.5352 54.375 30C54.375 36.5273 51.8086 42.4453 47.6367 46.8281ZM42.9375 50.6602C39.1875 53.0156 34.7578 54.375 30 54.375C25.2422 54.375 20.8125 53.0156 17.0508 50.6602C17.9062 46.3594 21.7031 43.125 26.25 43.125H33.75C38.2969 43.125 42.0938 46.3594 42.9492 50.6602H42.9375ZM30 60C37.9565 60 45.5871 56.8393 51.2132 51.2132C56.8393 45.5871 60 37.9565 60 30C60 22.0435 56.8393 14.4129 51.2132 8.7868C45.5871 3.16071 37.9565 0 30 0C22.0435 0 14.4129 3.16071 8.7868 8.7868C3.16071 14.4129 0 22.0435 0 30C0 37.9565 3.16071 45.5871 8.7868 51.2132C14.4129 56.8393 22.0435 60 30 60ZM30 28.125C28.7568 28.125 27.5645 27.6311 26.6854 26.7521C25.8064 25.873 25.3125 24.6807 25.3125 23.4375C25.3125 22.1943 25.8064 21.002 26.6854 20.1229C27.5645 19.2439 28.7568 18.75 30 18.75C31.2432 18.75 32.4355 19.2439 33.3146 20.1229C34.1936 21.002 34.6875 22.1943 34.6875 23.4375C34.6875 24.6807 34.1936 25.873 33.3146 26.7521C32.4355 27.6311 31.2432 28.125 30 28.125ZM19.6875 23.4375C19.6875 26.1725 20.774 28.7956 22.708 30.7295C24.6419 32.6635 27.265 33.75 30 33.75C32.735 33.75 35.3581 32.6635 37.292 30.7295C39.226 28.7956 40.3125 26.1725 40.3125 23.4375C40.3125 20.7025 39.226 18.0794 37.292 16.1455C35.3581 14.2115 32.735 13.125 30 13.125C27.265 13.125 24.6419 14.2115 22.708 16.1455C20.774 18.0794 19.6875 20.7025 19.6875 23.4375Z" fill="white"/>
</g>
<defs>
<clipPath id="clip0_2_166">
<rect width="60" height="60" fill="white"/>
</clipPath>
</defs>
</svg>
