<svg width="60" height="60" viewBox="0 0 60 60" fill="none" xmlns="http://www.w3.org/2000/svg">
<circle cx="30" cy="30" r="30" fill="#DDCFFF"/>
<path d="M24.7032 39.4433C24.7032 39.5714 24.5548 39.6738 24.3677 39.6738C24.1548 39.693 24.0065 39.5906 24.0065 39.4433C24.0065 39.3153 24.1548 39.2128 24.3419 39.2128C24.5355 39.1936 24.7032 39.296 24.7032 39.4433ZM22.6968 39.1552C22.6516 39.2832 22.7806 39.4305 22.9742 39.4689C23.1419 39.5329 23.3355 39.4689 23.3742 39.3409C23.4129 39.2128 23.2903 39.0656 23.0968 39.0079C22.929 38.9631 22.7419 39.0271 22.6968 39.1552ZM25.5484 39.0464C25.3613 39.0912 25.2323 39.2128 25.2516 39.3601C25.271 39.4881 25.4387 39.5714 25.6323 39.5265C25.8194 39.4817 25.9484 39.3601 25.929 39.232C25.9097 39.1104 25.7355 39.0271 25.5484 39.0464ZM29.7935 14.5122C20.8452 14.5122 14 21.254 14 30.1342C14 37.2345 18.5032 43.3104 24.9355 45.4488C25.7613 45.596 26.0516 45.0903 26.0516 44.6741C26.0516 44.2771 26.0323 42.0875 26.0323 40.743C26.0323 40.743 21.5161 41.7034 20.5677 38.8351C20.5677 38.8351 19.8323 36.972 18.7742 36.4918C18.7742 36.4918 17.2968 35.4866 18.8774 35.5058C18.8774 35.5058 20.4839 35.6339 21.3677 37.1576C22.7806 39.629 25.1484 38.9183 26.071 38.4957C26.2194 37.4714 26.6387 36.7607 27.1032 36.3381C23.4968 35.9412 19.8581 35.4226 19.8581 29.2634C19.8581 27.5028 20.3484 26.6192 21.3806 25.4924C21.2129 25.0762 20.6645 23.3604 21.5484 21.1451C22.8968 20.729 26 22.8738 26 22.8738C27.2903 22.5153 28.6774 22.3296 30.0516 22.3296C31.4258 22.3296 32.8129 22.5153 34.1032 22.8738C34.1032 22.8738 37.2065 20.7226 38.5548 21.1451C39.4387 23.3668 38.8903 25.0762 38.7226 25.4924C39.7548 26.6256 40.3871 27.5092 40.3871 29.2634C40.3871 35.4418 36.5871 35.9348 32.9806 36.3381C33.5742 36.8439 34.0774 37.8043 34.0774 39.3089C34.0774 41.4665 34.0581 44.1363 34.0581 44.6613C34.0581 45.0774 34.3548 45.5832 35.1742 45.436C41.6258 43.3104 46 37.2345 46 30.1342C46 21.254 38.7419 14.5122 29.7935 14.5122ZM20.271 36.5942C20.1871 36.6582 20.2065 36.8055 20.3161 36.9271C20.4194 37.0296 20.5677 37.0744 20.6516 36.9912C20.7355 36.9271 20.7161 36.7799 20.6065 36.6582C20.5032 36.5558 20.3548 36.511 20.271 36.5942ZM19.5742 36.0756C19.529 36.1589 19.5935 36.2613 19.7226 36.3253C19.8258 36.3893 19.9548 36.3701 20 36.2805C20.0452 36.1973 19.9806 36.0948 19.8516 36.0308C19.7226 35.9924 19.6194 36.0116 19.5742 36.0756ZM21.6645 38.3549C21.5613 38.4381 21.6 38.6302 21.7484 38.7518C21.8968 38.8991 22.0839 38.9183 22.1677 38.8159C22.2516 38.7326 22.2129 38.5406 22.0839 38.4189C21.9419 38.2717 21.7484 38.2525 21.6645 38.3549ZM20.929 37.4137C20.8258 37.4778 20.8258 37.6442 20.929 37.7915C21.0323 37.9387 21.2065 38.0028 21.2903 37.9387C21.3935 37.8555 21.3935 37.689 21.2903 37.5418C21.2 37.3945 21.0323 37.3305 20.929 37.4137Z" fill="#563A9C"/>
</svg>
