<svg width="60" height="60" viewBox="0 0 60 60" fill="none" xmlns="http://www.w3.org/2000/svg">
<circle cx="30" cy="30" r="30" fill="#DDCFFF"/>
<g clip-path="url(#clip0_181_5)">
<path d="M30.0071 21.1894C25.4643 21.1894 21.8 24.8966 21.8 29.4927C21.8 34.0888 25.4643 37.796 30.0071 37.796C34.55 37.796 38.2143 34.0888 38.2143 29.4927C38.2143 24.8966 34.55 21.1894 30.0071 21.1894ZM30.0071 34.891C27.0714 34.891 24.6714 32.4701 24.6714 29.4927C24.6714 26.5154 27.0643 24.0945 30.0071 24.0945C32.95 24.0945 35.3428 26.5154 35.3428 29.4927C35.3428 32.4701 32.9428 34.891 30.0071 34.891ZM40.4643 20.8498C40.4643 21.9265 39.6071 22.7865 38.55 22.7865C37.4857 22.7865 36.6357 21.9193 36.6357 20.8498C36.6357 19.7802 37.4928 18.913 38.55 18.913C39.6071 18.913 40.4643 19.7802 40.4643 20.8498ZM45.9 22.8154C45.7786 20.221 45.1928 17.923 43.3143 16.0296C41.4428 14.1363 39.1714 13.5437 36.6071 13.4136C33.9643 13.2619 26.0428 13.2619 23.4 13.4136C20.8428 13.5365 18.5714 14.1291 16.6928 16.0224C14.8143 17.9158 14.2357 20.2138 14.1071 22.8082C13.9571 25.482 13.9571 33.4962 14.1071 36.1701C14.2286 38.7644 14.8143 41.0625 16.6928 42.9558C18.5714 44.8492 20.8357 45.4417 23.4 45.5718C26.0428 45.7236 33.9643 45.7236 36.6071 45.5718C39.1714 45.449 41.4428 44.8564 43.3143 42.9558C45.1857 41.0625 45.7714 38.7644 45.9 36.1701C46.05 33.4962 46.05 25.4892 45.9 22.8154ZM42.4857 39.039C41.9286 40.4554 40.85 41.5466 39.4428 42.1175C37.3357 42.963 32.3357 42.7679 30.0071 42.7679C27.6786 42.7679 22.6714 42.9558 20.5714 42.1175C19.1714 41.5539 18.0928 40.4626 17.5286 39.039C16.6928 36.9072 16.8857 31.8486 16.8857 29.4927C16.8857 27.1369 16.7 22.071 17.5286 19.9464C18.0857 18.53 19.1643 17.4388 20.5714 16.8679C22.6786 16.0224 27.6786 16.2175 30.0071 16.2175C32.3357 16.2175 37.3428 16.0296 39.4428 16.8679C40.8428 17.4316 41.9214 18.5228 42.4857 19.9464C43.3214 22.0783 43.1286 27.1369 43.1286 29.4927C43.1286 31.8486 43.3214 36.9144 42.4857 39.039Z" fill="#563A9C"/>
</g>
<defs>
<clipPath id="clip0_181_5">
<rect width="32" height="37" fill="white" transform="translate(14 11)"/>
</clipPath>
</defs>
</svg>
