<svg width="60" height="60" viewBox="0 0 60 60" fill="none" xmlns="http://www.w3.org/2000/svg">
<circle cx="30" cy="30" r="30" fill="#DDCFFF"/>
<path d="M44.539 22.8781C44.189 21.5646 43.1612 20.5337 41.8557 20.1845C39.489 19.5471 30.0001 19.5471 30.0001 19.5471C30.0001 19.5471 20.5112 19.5471 18.1445 20.1845C16.839 20.5337 15.8112 21.5646 15.4612 22.8781C14.8279 25.2558 14.8279 30.2108 14.8279 30.2108C14.8279 30.2108 14.8279 35.1658 15.4612 37.5435C15.8112 38.857 16.839 39.8436 18.1445 40.1928C20.5112 40.8301 30.0001 40.8301 30.0001 40.8301C30.0001 40.8301 39.489 40.8301 41.8557 40.1928C43.1612 39.8436 44.189 38.8515 44.539 37.5435C45.1723 35.1658 45.1723 30.2108 45.1723 30.2108C45.1723 30.2108 45.1723 25.2558 44.539 22.8781ZM26.9001 34.7113V25.7103L34.8279 30.2108L26.9001 34.7113Z" fill="#563A9C"/>
</svg>
