<svg width="60" height="60" viewBox="0 0 60 60" fill="none" xmlns="http://www.w3.org/2000/svg">
<circle cx="30" cy="30" r="30" fill="#DDCFFF"/>
<g clip-path="url(#clip0_181_4)">
<path d="M43 28.1292C40.4441 28.1346 37.9511 27.3402 35.8732 25.8582V36.1903C35.8726 38.1038 35.2853 39.9716 34.1897 41.5437C33.0941 43.1159 31.5425 44.3175 29.7425 44.9879C27.9424 45.6582 25.9797 45.7654 24.1169 45.295C22.254 44.8246 20.5798 43.7991 19.3182 42.3556C18.0565 40.9121 17.2676 39.1195 17.0569 37.2175C16.8462 35.3155 17.2238 33.3948 18.1391 31.7122C19.0544 30.0296 20.4639 28.6655 22.179 27.8021C23.8941 26.9388 25.8331 26.6174 27.7366 26.881V32.0759C26.8662 31.8031 25.9315 31.8111 25.066 32.0987C24.2004 32.3864 23.4483 32.939 22.9169 33.6776C22.3856 34.4162 22.1022 35.3031 22.1072 36.2117C22.1123 37.1202 22.4055 38.0039 22.945 38.7367C23.4845 39.4694 24.2428 40.0136 25.1115 40.2917C25.9802 40.5698 26.9149 40.5675 27.7822 40.2851C28.6495 40.0028 29.405 39.4548 29.9409 38.7194C30.4767 37.984 30.7656 37.0988 30.7661 36.1903V16H35.8732C35.8703 16.4301 35.9073 16.8595 35.9835 17.2828C36.1611 18.2265 36.5301 19.1241 37.0679 19.921C37.6058 20.7178 38.3012 21.3971 39.1116 21.9172C40.2652 22.6759 41.6175 23.0798 43 23.0787V28.1292Z" fill="#563A9C"/>
</g>
<defs>
<clipPath id="clip0_181_4">
<rect width="26" height="29.5862" fill="white" transform="translate(17 16)"/>
</clipPath>
</defs>
</svg>
