<svg width="42" height="42" viewBox="0 0 42 42" fill="none" xmlns="http://www.w3.org/2000/svg">
<rect width="42" height="42" rx="4" fill="#563A9C"/>
<path d="M5 9C5 8.46957 5.21071 7.96086 5.58579 7.58579C5.96086 7.21071 6.46957 7 7 7H35C35.5304 7 36.0391 7.21071 36.4142 7.58579C36.7893 7.96086 37 8.46957 37 9V33C37 33.5304 36.7893 34.0391 36.4142 34.4142C36.0391 34.7893 35.5304 35 35 35H7C6.46957 35 5.96086 34.7893 5.58579 34.4142C5.21071 34.0391 5 33.5304 5 33V9ZM22 9V25H35V9H22ZM22 27V33H35V27H22ZM20 9H7V15H20V9ZM7 33H20V17H7V33Z" fill="white"/>
</svg>
