<svg width="42" height="42" viewBox="0 0 42 42" fill="none" xmlns="http://www.w3.org/2000/svg">
<rect width="42" height="42" rx="4" fill="#563A9C"/>
<g clip-path="url(#clip0_121_6)">
<path d="M8 7C7.73478 7 7.48043 7.10536 7.29289 7.29289C7.10536 7.48043 7 7.73478 7 8V14C7 14.2652 6.89464 14.5196 6.70711 14.7071C6.51957 14.8946 6.26522 15 6 15C5.73478 15 5.48043 14.8946 5.29289 14.7071C5.10536 14.5196 5 14.2652 5 14V8C5 7.20435 5.31607 6.44129 5.87868 5.87868C6.44129 5.31607 7.20435 5 8 5H14C14.2652 5 14.5196 5.10536 14.7071 5.29289C14.8946 5.48043 15 5.73478 15 6C15 6.26522 14.8946 6.51957 14.7071 6.70711C14.5196 6.89464 14.2652 7 14 7H8ZM27 6C27 5.73478 27.1054 5.48043 27.2929 5.29289C27.4804 5.10536 27.7348 5 28 5H34C34.7956 5 35.5587 5.31607 36.1213 5.87868C36.6839 6.44129 37 7.20435 37 8V14C37 14.2652 36.8946 14.5196 36.7071 14.7071C36.5196 14.8946 36.2652 15 36 15C35.7348 15 35.4804 14.8946 35.2929 14.7071C35.1054 14.5196 35 14.2652 35 14V8C35 7.73478 34.8946 7.48043 34.7071 7.29289C34.5196 7.10536 34.2652 7 34 7H28C27.7348 7 27.4804 6.89464 27.2929 6.70711C27.1054 6.51957 27 6.26522 27 6ZM6 27C6.26522 27 6.51957 27.1054 6.70711 27.2929C6.89464 27.4804 7 27.7348 7 28V34C7 34.2652 7.10536 34.5196 7.29289 34.7071C7.48043 34.8946 7.73478 35 8 35H14C14.2652 35 14.5196 35.1054 14.7071 35.2929C14.8946 35.4804 15 35.7348 15 36C15 36.2652 14.8946 36.5196 14.7071 36.7071C14.5196 36.8946 14.2652 37 14 37H8C7.20435 37 6.44129 36.6839 5.87868 36.1213C5.31607 35.5587 5 34.7956 5 34V28C5 27.7348 5.10536 27.4804 5.29289 27.2929C5.48043 27.1054 5.73478 27 6 27ZM36 27C36.2652 27 36.5196 27.1054 36.7071 27.2929C36.8946 27.4804 37 27.7348 37 28V34C37 34.7956 36.6839 35.5587 36.1213 36.1213C35.5587 36.6839 34.7956 37 34 37H28C27.7348 37 27.4804 36.8946 27.2929 36.7071C27.1054 36.5196 27 36.2652 27 36C27 35.7348 27.1054 35.4804 27.2929 35.2929C27.4804 35.1054 27.7348 35 28 35H34C34.2652 35 34.5196 34.8946 34.7071 34.7071C34.8946 34.5196 35 34.2652 35 34V28C35 27.7348 35.1054 27.4804 35.2929 27.2929C35.4804 27.1054 35.7348 27 36 27ZM11 14C11 13.7348 11.1054 13.4804 11.2929 13.2929C11.4804 13.1054 11.7348 13 12 13C12.2652 13 12.5196 13.1054 12.7071 13.2929C12.8946 13.4804 13 13.7348 13 14V28C13 28.2652 12.8946 28.5196 12.7071 28.7071C12.5196 28.8946 12.2652 29 12 29C11.7348 29 11.4804 28.8946 11.2929 28.7071C11.1054 28.5196 11 28.2652 11 28V14ZM15 14C15 13.7348 15.1054 13.4804 15.2929 13.2929C15.4804 13.1054 15.7348 13 16 13C16.2652 13 16.5196 13.1054 16.7071 13.2929C16.8946 13.4804 17 13.7348 17 14V28C17 28.2652 16.8946 28.5196 16.7071 28.7071C16.5196 28.8946 16.2652 29 16 29C15.7348 29 15.4804 28.8946 15.2929 28.7071C15.1054 28.5196 15 28.2652 15 28V14ZM19 14C19 13.7348 19.1054 13.4804 19.2929 13.2929C19.4804 13.1054 19.7348 13 20 13C20.2652 13 20.5196 13.1054 20.7071 13.2929C20.8946 13.4804 21 13.7348 21 14V28C21 28.2652 20.8946 28.5196 20.7071 28.7071C20.5196 28.8946 20.2652 29 20 29C19.7348 29 19.4804 28.8946 19.2929 28.7071C19.1054 28.5196 19 28.2652 19 28V14ZM23 14C23 13.7348 23.1054 13.4804 23.2929 13.2929C23.4804 13.1054 23.7348 13 24 13H26C26.2652 13 26.5196 13.1054 26.7071 13.2929C26.8946 13.4804 27 13.7348 27 14V28C27 28.2652 26.8946 28.5196 26.7071 28.7071C26.5196 28.8946 26.2652 29 26 29H24C23.7348 29 23.4804 28.8946 23.2929 28.7071C23.1054 28.5196 23 28.2652 23 28V14ZM29 14C29 13.7348 29.1054 13.4804 29.2929 13.2929C29.4804 13.1054 29.7348 13 30 13C30.2652 13 30.5196 13.1054 30.7071 13.2929C30.8946 13.4804 31 13.7348 31 14V28C31 28.2652 30.8946 28.5196 30.7071 28.7071C30.5196 28.8946 30.2652 29 30 29C29.7348 29 29.4804 28.8946 29.2929 28.7071C29.1054 28.5196 29 28.2652 29 28V14Z" fill="white"/>
</g>
<defs>
<clipPath id="clip0_121_6">
<rect width="32" height="32" fill="white" transform="translate(5 5)"/>
</clipPath>
</defs>
</svg>
