<svg width="42" height="42" viewBox="0 0 42 42" fill="none" xmlns="http://www.w3.org/2000/svg">
<rect width="42" height="42" rx="4" fill="#563A9C"/>
<path d="M31.2121 19.444C31.2121 13.51 26.7141 9.38 20.2481 9.38C13.5481 9.38 8.95605 14.016 8.95605 20.784C8.95605 27.77 13.4261 32.2 20.4801 32.2C22.2041 32.2 23.8581 31.954 25.0881 31.53V29.806C24.2281 30.204 22.3801 30.462 20.5081 30.462C14.6561 30.462 10.8821 26.702 10.8821 20.866C10.8821 15.178 14.7241 11.104 20.0701 11.104C25.5401 11.104 29.2861 14.48 29.2861 19.416C29.2861 22.78 28.1781 24.954 26.4541 24.954C25.4701 24.954 24.9101 24.394 24.9101 23.434V15.412H22.8461V17.08H22.6261C22.0941 15.89 20.8641 15.152 19.4261 15.152C16.6261 15.152 14.6701 17.476 14.6701 20.798C14.6701 24.272 16.5841 26.61 19.4281 26.61C21.0281 26.61 22.2581 25.83 22.8461 24.436H23.0661C23.2281 25.776 24.4721 26.732 26.0721 26.732C29.2161 26.732 31.2121 23.9 31.2121 19.444ZM16.8581 20.852C16.8581 18.458 17.9381 17.038 19.7701 17.038C21.6301 17.038 22.8181 18.514 22.8181 20.852C22.8181 23.19 21.6161 24.68 19.7421 24.68C17.9521 24.68 16.8581 23.23 16.8581 20.852Z" fill="white"/>
</svg>
