<svg width="42" height="42" viewBox="0 0 42 42" fill="none" xmlns="http://www.w3.org/2000/svg">
<rect width="42" height="42" rx="4" fill="#563A9C"/>
<path d="M5 13C5 13 5 9 9 9H33C33 9 37 9 37 13V25C37 25 37 29 33 29H25C25 30.3333 25.1667 31.3333 25.5 32H27C27.2652 32 27.5196 32.1054 27.7071 32.2929C27.8946 32.4804 28 32.7348 28 33C28 33.2652 27.8946 33.5196 27.7071 33.7071C27.5196 33.8946 27.2652 34 27 34H15C14.7348 34 14.4804 33.8946 14.2929 33.7071C14.1054 33.5196 14 33.2652 14 33C14 32.7348 14.1054 32.4804 14.2929 32.2929C14.4804 32.1054 14.7348 32 15 32H16.5C16.8333 31.3333 17 30.3333 17 29H9C9 29 5 29 5 25V13ZM7.796 11.29C7.57644 11.4431 7.4012 11.6515 7.288 11.894C7.11952 12.247 7.02168 12.6295 7 13.02V25C7 25.65 7.156 26.004 7.29 26.204C7.43 26.412 7.63133 26.5813 7.894 26.712C8.23168 26.8736 8.59663 26.9706 8.97 26.998L9.02 27H33C33.65 27 34.004 26.844 34.204 26.71C34.4236 26.5569 34.5988 26.3486 34.712 26.106C34.8736 25.7683 34.9706 25.4034 34.998 25.03L35 24.98V13C35 12.35 34.844 11.996 34.71 11.796C34.5569 11.5764 34.3486 11.4012 34.106 11.288C33.753 11.1195 33.3705 11.0217 32.98 11H9C8.35 11 7.996 11.156 7.796 11.29Z" fill="white"/>
</svg>
