<svg width="42" height="42" viewBox="0 0 42 42" fill="none" xmlns="http://www.w3.org/2000/svg">
<rect width="42" height="42" rx="4" fill="#563A9C"/>
<path d="M16.708 14.708C16.8009 14.6151 16.8747 14.5047 16.925 14.3832C16.9753 14.2617 17.0012 14.1315 17.0012 14C17.0012 13.8686 16.9753 13.7384 16.925 13.6169C16.8747 13.4954 16.8009 13.385 16.708 13.292C16.615 13.1991 16.5046 13.1253 16.3831 13.075C16.2616 13.0247 16.1314 12.9988 16 12.9988C15.8685 12.9988 15.7383 13.0247 15.6168 13.075C15.4953 13.1253 15.3849 13.1991 15.292 13.292L8.29196 20.292C8.19883 20.3849 8.12494 20.4953 8.07453 20.6168C8.02412 20.7383 7.99817 20.8685 7.99817 21C7.99817 21.1316 8.02412 21.2618 8.07453 21.3833C8.12494 21.5048 8.19883 21.6152 8.29196 21.708L15.292 28.708C15.4797 28.8958 15.7344 29.0013 16 29.0013C16.2655 29.0013 16.5202 28.8958 16.708 28.708C16.8957 28.5203 17.0012 28.2656 17.0012 28C17.0012 27.7345 16.8957 27.4798 16.708 27.292L10.414 21L16.708 14.708ZM25.292 14.708C25.1042 14.5203 24.9987 14.2656 24.9987 14C24.9987 13.7345 25.1042 13.4798 25.292 13.292C25.4797 13.1043 25.7344 12.9988 26 12.9988C26.2655 12.9988 26.5202 13.1043 26.708 13.292L33.708 20.292C33.8011 20.3849 33.875 20.4953 33.9254 20.6168C33.9758 20.7383 34.0017 20.8685 34.0017 21C34.0017 21.1316 33.9758 21.2618 33.9254 21.3833C33.875 21.5048 33.8011 21.6152 33.708 21.708L26.708 28.708C26.5202 28.8958 26.2655 29.0013 26 29.0013C25.7344 29.0013 25.4797 28.8958 25.292 28.708C25.1042 28.5203 24.9987 28.2656 24.9987 28C24.9987 27.7345 25.1042 27.4798 25.292 27.292L31.586 21L25.292 14.708Z" fill="white"/>
</svg>
